<?xml version="1.0" encoding="iso-8859-1"?>
<!-- Generator: Adobe Illustrator 16.0.0, SVG Export Plug-In . SVG Version: 6.00 Build 0)  -->
<!DOCTYPE svg PUBLIC "-//W3C//DTD SVG 1.1//EN" "http://www.w3.org/Graphics/SVG/1.1/DTD/svg11.dtd">
<svg xmlns="http://www.w3.org/2000/svg" xmlns:xlink="http://www.w3.org/1999/xlink" version="1.1" id="Capa_1" x="0px" y="0px" width="512px" height="512px" viewBox="0 0 454.014 454.014" style="enable-background:new 0 0 454.014 454.014;" xml:space="preserve">
<g>
	<path d="M20.959,195.188v5.462c2.673-5.083,5.743-9.944,9.265-14.551c13.018-17.02,31.621-30.562,55.567-40.627   c0.21-0.084,0.405-0.18,0.619-0.264c25.465-10.6,56.94-17.288,94.305-19.933c15.018-1.062,29.43-1.311,42.495-1.138   c2.591,0.03,5.125,0.076,7.61,0.148c29.783,0.789,50.666,3.648,50.975,3.695l-0.017,0.134   C419.045,143,433.067,195.188,433.067,195.188V73.83C418.793-10.846,223.21,0.508,223.21,0.508v0.158   C186.147,1.73,24.322,10.021,20.959,73.83v21.47c0,0-0.03,0.395,0,1.062v97.777C20.93,194.798,20.959,195.188,20.959,195.188z" fill="#a9bcd0"/>
	<path d="M194.88,163.786c-40.609-3.342-71.701-8.674-95.569-14.938c-25.289,8.933-47.754,22.279-62.86,42.032   c-6.69,8.742-11.672,18.464-15.018,29.124c9.976,68.708,209.38,69.986,209.38,69.986v-0.253   c26.91,2.185,49.571,5.711,68.591,10.075c6.82,1.37,13.874,3.189,20.959,5.526c3.763,1.142,7.414,2.3,10.816,3.502   c-0.221,0.076-0.474,0.156-0.706,0.24c15.642,6.376,30.958,15.661,43.718,29.187c10.936,11.589,18.963,25.383,24.232,41.168   v-21.083v-99.027v-22.342C395.032,172.4,229.256,164.692,194.88,163.786z" fill="#a9bcd0"/>
	<path d="M394.628,394.929c-4.4-20.326-13.104-37.466-26.104-51.251c-14.339-15.196-32.444-24.718-50.485-30.657   c-30.433,8.933-72.13,15.785-129.456,17.104l70.647,49.035l-70.647,74.854C188.574,454.014,366.376,452.88,394.628,394.929z" fill="#a9bcd0"/>
</g>
<g>
</g>
<g>
</g>
<g>
</g>
<g>
</g>
<g>
</g>
<g>
</g>
<g>
</g>
<g>
</g>
<g>
</g>
<g>
</g>
<g>
</g>
<g>
</g>
<g>
</g>
<g>
</g>
<g>
</g>
</svg>
